<?xml version="1.0" encoding="UTF-8"?><svg id="Layer_1" xmlns="http://www.w3.org/2000/svg" viewBox="0 0 485.356 218.415"><defs><style>.cls-1{fill:#0066b3;}.cls-2{fill:#1d1d1b;}.cls-3{fill:#ebb71f;}</style></defs><path class="cls-1" d="m104.917,123.469c-3.674,2.12-8.922,3.444-14.752,3.444s-11.083-1.323-14.758-3.44c-3.672-2.117-8.926-3.439-14.752-3.439s-11.092,1.321-14.756,3.439c-3.678,2.116-8.926,3.44-14.761,3.44s-11.078-1.323-14.748-3.44c-3.678-2.117-8.923-3.439-14.761-3.439-.545,0-1.085.02-1.63.043v13.655c0,2.068.076,4.056.193,6.015.477-.017.956-.042,1.437-.042,5.838,0,11.083,1.326,14.761,3.448,3.669,2.114,8.918,3.435,14.748,3.435s11.084-1.321,14.761-3.435c3.664-2.123,8.926-3.448,14.756-3.448s11.079,1.326,14.752,3.448c3.675,2.114,8.918,3.435,14.758,3.435s11.078-1.321,14.752-3.44c3.673-2.118,8.922-3.444,14.748-3.444.495,0,.968.025,1.445.042.117-1.959.189-3.947.189-6.015v-13.655c-.536-.023-1.072-.043-1.634-.043-5.825,0-11.074,1.321-14.748,3.435"/><path class="cls-1" d="m90.166,166.266c-5.835,0-11.088-1.321-14.758-3.435-3.672-2.118-8.926-3.448-14.752-3.448s-11.088,1.33-14.756,3.448c-3.678,2.114-8.926,3.435-14.761,3.435-5.829.004-11.078-1.321-14.748-3.435-3.269-1.888-7.779-3.138-12.829-3.385,2.584,8.65,6.41,15.923,10.925,22.119.671.298,1.31.6,1.904.944,3.669,2.114,8.918,3.444,14.748,3.44,5.835,0,11.084-1.326,14.761-3.44,3.668-2.118,8.926-3.452,14.756-3.452s11.079,1.326,14.752,3.452c3.67,2.114,8.923,3.44,14.758,3.44s11.078-1.326,14.752-3.44c.593-.348,1.238-.65,1.904-.948,4.519-6.191,8.333-13.465,10.921-22.115-5.056.248-9.566,1.498-12.825,3.385-3.674,2.114-8.922,3.435-14.752,3.435"/><path class="cls-1" d="m75.407,202.182c-3.672-2.11-8.926-3.44-14.752-3.44s-11.088,1.33-14.756,3.44c-1.77,1.023-3.903,1.846-6.289,2.441,8.458,5.654,16.278,9.811,21.045,13.792,4.763-3.981,12.583-8.138,21.042-13.792-2.386-.596-4.52-1.418-6.29-2.441"/><path class="cls-1" d="m104.917,84.113c-3.674,2.118-8.922,3.45-14.752,3.45s-11.083-1.332-14.758-3.45c-3.672-2.11-8.926-3.437-14.752-3.437s-11.092,1.326-14.756,3.437c-3.678,2.118-8.926,3.45-14.761,3.45s-11.078-1.332-14.748-3.45c-3.678-2.11-8.923-3.437-14.761-3.437-.545,0-1.085.019-1.63.042v19.677c.544-.019,1.084-.038,1.63-.038,5.838,0,11.083,1.32,14.761,3.435,3.669,2.124,8.918,3.445,14.748,3.445s11.084-1.321,14.761-3.445c3.664-2.115,8.926-3.435,14.756-3.435s11.079,1.32,14.752,3.435c3.675,2.124,8.918,3.445,14.758,3.445s11.078-1.321,14.752-3.445c3.673-2.115,8.922-3.435,14.748-3.435.562,0,1.098.019,1.634.042v-19.682c-.536-.023-1.072-.042-1.634-.042-5.825,0-11.074,1.326-14.748,3.437"/><path class="cls-3" d="m74.704,40.127c.166-1.097.187-2.4,0-3.643-.061-.395-.184-.786-.251-1.188-.177-1.053-.209-2.037-.177-3.048.047-1.029.278-2.26.74-2.949-1.03-.157-2.398,1.113-3.135,2.201-.513.757-.94,1.518-1.221,2.364-.114.31-.179.653-.286.963-.358.996-.994,1.982-1.674,2.76-.893.986-2.012,1.832-3.021,2.584,0,0,0,.008-.004.008,2.916.631,5.632,1.783,8.054,3.364.373-1.056.764-2.193.974-3.417Zm-28.001-4.637c.151.302.344.584.491.896.448.954.703,2.089.758,3.118.078,1.341-.126,2.731-.288,3.968v.027c2.413-1.574,5.138-2.729,8.054-3.342-.477-1.011-.988-2.094-1.728-3.093-.653-.9-1.562-1.831-2.562-2.56-.332-.246-.684-.447-1.021-.68-.873-.618-1.585-1.301-2.278-2.029-.698-.762-1.392-1.8-1.558-2.613-.848.622-.916,2.49-.666,3.783.178.892.41,1.726.799,2.525Zm17.979,4.515L60.656,0l-4.03,40.004c1.316-.214,2.649-.36,4.03-.36,1.369,0,2.706.146,4.026.36Zm15.656,9.959l7.658-13.73-13.72,7.68c2.362,1.63,4.414,3.68,6.061,6.051Zm-33.303-6.051l-13.724-7.68,7.655,13.73c1.659-2.371,3.702-4.421,6.069-6.051Zm42.712,10.443c.243-.332.435-.688.681-1.012.603-.876,1.293-1.593,2.021-2.278.758-.7,1.796-1.396,2.606-1.567-.616-.841-2.491-.919-3.776-.666-.882.173-1.72.407-2.526.802-.315.154-.584.345-.9.494-.948.446-2.084.693-3.128.751-1.324.09-2.715-.124-3.962-.287h-.02c1.573,2.426,2.721,5.136,3.338,8.058,1.012-.477,2.082-.995,3.093-1.728.898-.653,1.832-1.556,2.574-2.567Zm-52.702,5.322l-21.816,3.912,21.824,3.905c-.199-1.279-.346-2.577-.346-3.908s.147-2.638.338-3.909Zm69.029,3.912l-21.828-3.912c.216,1.271.355,2.58.355,3.909s-.139,2.629-.355,3.908l21.828-3.905Zm-72.516-14.046c-.396.059-.79.168-1.192.242-1.052.178-2.048.203-3.055.166-1.031-.034-2.246-.281-2.933-.727-.175,1.036,1.105,2.402,2.191,3.133.742.509,1.526.945,2.356,1.22.326.115.65.171.974.293.995.347,1.972.986,2.745,1.67,1.006.886,1.838,2.013,2.608,3.007.618-2.903,1.779-5.623,3.359-8.035-1.049-.374-2.183-.779-3.422-.969-1.094-.172-2.391-.193-3.63,0Zm27.098-5.84c-10.982,0-19.884,8.901-19.884,19.882,0,.99.1,1.959.238,2.909,1.825-.55,3.476-1.246,4.89-2.061,3.664-2.109,8.926-3.437,14.756-3.437s11.079,1.327,14.752,3.437c1.415.817,3.068,1.51,4.894,2.065.14-.954.236-1.921.236-2.913,0-10.981-8.901-19.882-19.882-19.882Z"/><path class="cls-2" d="m147.548,89.901c0-6.017-.11-7.112-7.277-8.148v-.823h18.824v.823c-6.566.871-6.734,2.514-6.734,8.148v19.584c.057,10.615-1.2,12.968-13.075,18.051l-.436-.93c8.04-3.774,8.697-9.68,8.697-19.523v-17.182Z"/><path class="cls-2" d="m174.319,85.798l-5.144,14.222h10.833l-5.689-14.222Zm-6.072,16.739c-.929,2.738-3.344,8.43-3.344,11.052,0,3.338,3.776,3.338,6.242,3.721v.819h-14.99v-.819c4.872-1.314,5.361-2.408,7.056-6.677l6.179-16.137,3.287-8.916c.49-1.425,1.201-2.736.6-3.773,1.478-.604,2.843-1.585,3.994-2.953l12.034,32.054c1.475,3.995,2.409,5.581,6.784,6.403v.819h-16.082v-.819c1.915-.438,4.213-1.043,4.213-3.501,0-2.299-2.081-7.442-3.502-11.272h-12.471Z"/><path class="cls-2" d="m222.564,110.142l9.903-21.773c1.368-3.004,2.132-5.745.927-6.563l.114-.878h12.027v.823c-3.496.71-5.628,2.022-5.411,5.853l1.204,19.914c.601,7.601.601,8.808,6.449,9.793v.818h-17.99v-.818c4.211-.659,6.889-1.15,6.616-5.964l-1.478-23.905h-.107l-13.946,30.687h-.601l-12.969-29.43h-.104c-.88,8.368-1.317,14.44-1.701,22.915-.107,2.135-.054,4.6,6.566,5.697v.818h-15.258v-.818c4.868-.823,5.355-3.177,6.126-7.604l2.022-15.374.71-7.44c.331-3.613-2.789-4.871-6.015-5.142v-.823h11.814l.054.602c-1.205,1.256.27,4.541.657,5.416l10.39,23.195Z"/><path class="cls-2" d="m250.033,117.311c6.566-.879,6.619-2.521,6.776-8.153v-19.257c-.157-5.636-.21-7.277-6.776-8.148v-.823h29.373l-.658,8.421h-.816c-.387-7.053-5.475-7.112-10.996-7.112h-5.306v15.591h5.685c4.104,0,7.223-.326,7.824-5.028h.821v12.196h-.821c-.713-4.81-3.72-4.872-7.824-4.872h-5.685v8.975c0,3.225-.767,7.712,8.204,7.712,6.894,0,10.283-2.619,11.651-9.517h.818c-.053,4.157-.76,7.55-1.854,10.832h-30.415v-.818Z"/><path class="cls-2" d="m307.363,90.558h-.874c-.875-4.431-2.296-8.699-7.712-8.699-3.507,0-6.401,2.406-6.401,6.02,0,9.46,17.23,9.133,17.23,20.185,0,7.053-7.004,10.723-13.291,10.723-3.344,0-6.843-.984-9.625-2.79l-1.592-9.3h.981c1.368,5.253,5.035,10.45,11.054,10.45,4.043,0,7.225-2.406,7.225-6.673,0-9.739-16.74-8.863-16.74-19.805,0-6.402,6.345-10.446,12.193-10.446,2.79,0,5.582.817,7.991,2.129l-.44,8.208Z"/><path class="cls-2" d="m355.786,92.199h-.822c-1.041-6.183-4.654-10.61-11.212-10.61-10.014,0-15.653,8.2-15.653,17.612,0,10.781,8.259,18.269,16.2,18.269,7.158,0,10.005-5.249,12.467-11.156l.771.329c-.664,3.34-1.697,6.62-3.012,9.792-3.499,1.695-7.276,2.353-11.163,2.353-11.436,0-21.608-6.565-21.608-18.929,0-9.737,7.604-19.585,22.048-19.585,4.16,0,8.371.823,11.985,2.955v8.971Z"/><path class="cls-2" d="m366.733,98.161c0,8.48,4.485,19.31,14.332,19.31,9.022,0,13.023-9.191,13.023-17.01-.168-9.689-5.803-18.874-14.174-18.874-9.411,0-13.182,9.185-13.182,16.574m33.697,1.37c0,11.762-8.534,19.251-20.023,19.251s-20.025-7.489-20.025-19.304c0-11.657,8.539-19.207,19.972-19.207,14.007,0,20.076,9.521,20.076,19.26"/><path class="cls-2" d="m410.666,98.161c0,8.48,4.488,19.31,14.334,19.31,9.031,0,13.023-9.191,13.023-17.01-.168-9.689-5.803-18.874-14.175-18.874-9.401,0-13.182,9.185-13.182,16.574m33.699,1.37c0,11.762-8.532,19.251-20.02,19.251-11.545,0-20.025-7.489-20.025-19.304,0-11.657,8.536-19.207,19.972-19.207,14.003,0,20.073,9.521,20.073,19.26"/><path class="cls-2" d="m481.692,80.929v.825c-6.237.654-10.393,5.961-14.443,10.172l-5.142,5.472,11.107,12.251c3.337,3.667,7.278,6.946,12.142,8.313l-.274.825c-9.518-.767-11.047-1.041-16.196-6.675l-11.159-12.147,8.811-9.57c5.742-6.453,4.648-8.261.981-8.641v-.825h14.174Zm-24.725,28.23c.162,5.633.216,7.276,7.276,8.152v.819h-18.879v-.819c6.571-.876,6.62-2.518,6.784-8.152v-19.257c-.163-5.636-.213-7.277-6.784-8.148v-.825h17.396v.825c-5.577.871-5.632,2.512-5.793,8.148v19.257Z"/><path class="cls-2" d="m182.997,132.274v.818c-4.978.547-5.308,3.616-5.522,10.835l-.333,11.979c-.159,7.063-3.17,14.223-15.314,14.223-16.956,0-15.207-12.255-15.207-16.626v-12.255c-.168-5.64-.221-7.275-6.787-8.155v-.818h18.877v.818c-7.17,1.041-7.277,2.136-7.277,8.155v11.214c0,1.041-1.754,15.156,13.236,15.156,11.818,0,10.67-11.27,10.67-17.948v-5.742c0-6.948-.546-10.116-8.204-10.835v-.818h15.861Z"/><path class="cls-2" d="m221.063,160.885l-.274-19.968c-.056-5.198-1.474-6.731-7.657-7.825v-.818h14.927v.818c-3.773.494-4.481,2.574-4.918,6.131-.768,6.013-.494,19.201-.221,31.126l-.707.168c-8.754-10.337-18.49-19.919-27.736-29.877v10.073c0,13.564-.326,16.353,7.604,17.938v.827h-16.352v-.827c7.384-.762,7.107-5.801,7.107-18.212v-8.208c0-5.472-.874-7.608-7.82-9.14v-.818h9.024l27.023,28.611Z"/><path class="cls-2" d="m241.992,160.506c.164,5.63.225,7.275,6.783,8.148v.824h-18.377v-.824c6.56-.874,6.62-2.518,6.78-8.148v-19.26c-.159-5.64-.22-7.275-6.78-8.155v-.818h18.377v.818c-6.558.88-6.619,2.515-6.783,8.155v19.26Z"/><path class="cls-2" d="m291.062,132.274v.818c-5.145.442-6.728,4.76-10.119,12.694l-10.454,24.946h-.763l-12.359-29.591c-1.644-4.001-2.902-7.502-7.769-8.049v-.818h17.34v.818c-7.716.768-5.199,5.145-3.777,8.593l8.75,21.116,6.463-15.482c4.698-11.217,5.574-13.02-2.739-14.226v-.818h15.428Z"/><path class="cls-2" d="m291.555,168.651c6.571-.871,6.623-2.515,6.784-8.145v-19.26c-.16-5.64-.213-7.275-6.784-8.155v-.818h29.379l-.654,8.425h-.822c-.387-7.06-5.475-7.113-10.999-7.113h-5.302v15.591h5.689c4.096,0,7.222-.326,7.82-5.033h.825v12.202h-.825c-.71-4.813-3.725-4.865-7.82-4.865h-5.689v8.969c0,3.224-.766,7.71,8.207,7.71,6.888,0,10.284-2.624,11.649-9.516h.821c-.054,4.157-.765,7.548-1.859,10.834h-30.419v-.827Z"/><path class="cls-2" d="m337.556,150.766c5.251-.053,11.38-2.462,11.38-8.534,0-6.404-5.636-8.975-11.38-8.919v17.454Zm-4.814-7.225c0-8.369-.275-9.625-6.401-10.175v-.762l13.35-.438c13.783-.438,14.878,6.289,14.878,8.916,0,4.595-2.843,7.222-6.781,8.975l.271.383c4.214,7.381,9.463,16.791,18.495,18.657l-.168.815c-5.801-.274-10.065-.106-13.238-3.389-3.611-3.774-6.454-8.587-7.601-10.947-2.193-4.536-4.16-3.221-7.99-3.883v8.814c0,6.016.106,7.107,7.603,8.145v.827h-19.201v-.827c6.563-.871,6.616-2.515,6.784-8.145v-16.965Z"/><path class="cls-2" d="m387.251,141.902h-.874c-.875-4.433-2.299-8.702-7.712-8.702-3.504,0-6.398,2.406-6.398,6.022,0,9.463,17.227,9.134,17.227,20.189,0,7.051-7.001,10.716-13.291,10.716-3.337,0-6.843-.982-9.633-2.792l-1.579-9.293h.979c1.371,5.251,5.032,10.446,11.055,10.446,4.045,0,7.214-2.403,7.214-6.669,0-9.74-16.734-8.867-16.734-19.81,0-6.404,6.341-10.446,12.193-10.446,2.793,0,5.584.818,7.993,2.133l-.442,8.204Z"/><path class="cls-2" d="m403.25,160.506c.162,5.63.221,7.275,6.784,8.148v.824h-18.386v-.824c6.572-.874,6.625-2.518,6.791-8.148v-19.26c-.166-5.64-.219-7.275-6.791-8.155v-.818h18.386v.818c-6.563.88-6.622,2.515-6.784,8.155v19.26Z"/><path class="cls-2" d="m446.161,130.579h.432l.768,10.232-.768.162c-1.914-6.787-4.917-7.057-11.209-7.057h-3.291v25.275c0,6.777.334,8.59,7.667,9.46v.83h-20.132v-.83c7.328-.871,7.654-2.683,7.654-9.46v-25.275h-3.275c-6.297,0-9.306.27-11.225,7.057l-.757-.162.757-10.232h.443l.547.491c1.37,1.259,1.59,1.203,3.39,1.203h25.061c1.802,0,2.021.056,3.389-1.203l.549-.491Z"/><path class="cls-2" d="m483.48,132.274v.818c-4.761.386-7.108,3.01-9.411,6.952l-6.454,12.796v6.193c.112,6.283.218,8.528,7.22,9.619v.827h-19.258v-.827c7.004-1.091,7.118-3.336,7.22-9.619v-4.384l-5.684-12.417c-2.082-4.595-3.558-8.481-9.086-9.14v-.818h15.102v.818c-4.488.606-3.885,2.409-2.13,6.24l5.465,11.817,4.758-9.028c3.392-6.345,2.955-8.422-1.799-9.028v-.818h14.055Z"/><rect class="cls-2" x="146.386" y="180.269" width="333.63" height="1.116"/><path class="cls-2" d="m157.789,190.947h4.316l11.662,26.692h-4.922l-2.688-6.399h-12.533l-2.725,6.399h-4.771l11.662-26.692Zm6.664,16.165l-4.581-10.6-4.543,10.6h9.125Z"/><path class="cls-2" d="m175.386,206.394v-15.258h4.657v15.069c0,4.922,2.536,7.534,6.702,7.534,4.127,0,6.664-2.46,6.664-7.345v-15.258h4.656v15.03c0,7.914-4.467,11.89-11.396,11.89-6.891,0-11.283-3.976-11.283-11.662Z"/><path class="cls-2" d="m200.822,213.777l2.801-3.331c2.537,2.195,5.111,3.446,8.368,3.446,2.877,0,4.694-1.364,4.694-3.333v-.076c0-1.893-1.06-2.914-5.982-4.05-5.641-1.364-8.822-3.031-8.822-7.914v-.076c0-4.542,3.787-7.686,9.049-7.686,3.862,0,6.929,1.175,9.618,3.333l-2.499,3.522c-2.385-1.78-4.77-2.727-7.194-2.727-2.727,0-4.317,1.401-4.317,3.142v.076c0,2.045,1.212,2.953,6.323,4.165,5.603,1.364,8.481,3.37,8.481,7.762v.076c0,4.959-3.9,7.912-9.466,7.912-4.051,0-7.875-1.401-11.055-4.241Z"/><path class="cls-2" d="m232.202,195.453h-8.405v-4.317h21.506v4.317h-8.405v22.186h-4.695v-22.186Z"/><path class="cls-2" d="m249.46,191.136h11.813c3.332,0,5.944.984,7.648,2.649,1.401,1.44,2.195,3.409,2.195,5.717v.076c0,4.356-2.612,6.968-6.285,8.027l7.156,10.034h-5.527l-6.513-9.239h-5.831v9.239h-4.656v-26.503Zm11.472,13.139c3.332,0,5.452-1.743,5.452-4.432v-.076c0-2.838-2.044-4.39-5.49-4.39h-6.778v8.898h6.816Z"/><path class="cls-2" d="m288.563,190.947h4.316l11.662,26.692h-4.922l-2.688-6.399h-12.533l-2.725,6.399h-4.771l11.662-26.692Zm6.664,16.165l-4.581-10.6-4.543,10.6h9.125Z"/><path class="cls-2" d="m309.339,191.136h4.656v22.262h13.933v4.241h-18.59v-26.503Z"/><path class="cls-2" d="m332.276,191.136h4.656v26.503h-4.656v-26.503Z"/><path class="cls-2" d="m353.173,190.947h4.316l11.662,26.692h-4.922l-2.688-6.399h-12.533l-2.725,6.399h-4.771l11.662-26.692Zm6.664,16.165l-4.581-10.6-4.543,10.6h9.125Z"/></svg>