<svg width="726" height="92" viewBox="0 0 726 92" fill="none" xmlns="http://www.w3.org/2000/svg">
<path d="M34.7685 57.7508C34.7685 66.9324 27.0885 72.5034 17.3323 72.5034C12.2469 72.5034 6.74626 70.1303 4.98177 68.3769L3.9439 71.5748H0.519047L0 55.5843H2.17964C3.32118 60.6394 9.5484 70.0275 17.8514 70.0275C25.1164 70.0275 27.6073 66.2104 27.6073 61.1553C27.6073 55.7909 23.5595 53.6243 15.4644 51.2517C8.822 49.2917 1.34934 45.4746 1.34934 36.6026C1.34934 28.9686 7.26509 23.0882 16.9172 23.0882C20.965 23.0882 25.1164 24.0168 27.711 25.7707L28.5413 22.9852H31.7588L32.4854 37.2216H30.3058C29.2679 31.3412 23.9747 25.4611 16.6059 25.4611C10.2748 25.4611 8.51053 29.0719 8.51053 32.8888C8.51053 38.7689 12.0393 39.9038 20.6535 42.6893C29.1642 45.4746 34.7685 49.2917 34.7685 57.7508Z" fill="black"/>
<path d="M89.358 47.2285C89.358 60.9492 80.6399 72.5034 64.9682 72.5034C52.5137 72.5034 41.5121 63.1153 41.5121 47.9505C41.5121 33.3014 51.1644 23.0882 65.6946 23.0882C80.2247 23.0882 89.358 33.5078 89.358 47.2285ZM78.8754 47.3315C78.8754 36.4996 75.6581 25.4611 65.5907 25.4611C54.7968 25.4611 51.9947 37.3249 51.9947 47.1252C51.9947 59.4014 55.8349 70.1303 65.5907 70.1303C74.8278 70.1303 78.8754 59.7108 78.8754 47.3315Z" fill="black"/>
<path d="M149.345 70.1303L133.05 71.265L132.324 70.543V64.2504H132.012C128.068 68.1704 124.332 72.2969 115.406 72.2969C105.754 72.2969 101.914 65.1785 101.914 55.4815V33.8171C101.707 31.6508 100.876 29.7939 99.2156 28.6592C97.9702 27.8339 95.8945 27.1117 94.0263 27.0086V25.0484L110.736 23.8105L111.462 24.5327V57.3382C111.462 64.4565 115.199 68.1704 119.662 68.1704C127.238 68.1704 130.871 63.3218 132.22 61.1553V33.5078C132.012 31.3412 131.182 29.4845 129.521 28.3496C128.276 27.5243 125.474 27.1117 122.775 27.0086V25.0484L140.938 23.8105L141.664 24.5327V61.8773C141.872 64.0439 142.702 65.6945 144.363 66.8291C145.609 67.6544 147.476 68.0671 149.345 68.1704V70.1303Z" fill="black"/>
<path d="M209.953 71.0589H185.46V68.9957C187.328 68.8924 188.885 68.6863 190.337 68.2736C192.31 67.6544 193.14 65.901 193.14 63.6312V38.7689C193.14 31.6508 188.988 27.7307 184.525 27.7307C176.949 27.7307 172.694 32.5792 171.552 34.952V63.1153C171.552 65.3851 172.486 66.9324 174.354 67.7577C175.911 68.4797 177.468 68.8924 179.232 68.9957V71.0589H154.739V68.9957C156.607 68.8924 157.852 68.6863 159.305 68.2736C161.277 67.6544 162.107 65.901 162.107 63.6312V34.0237C161.9 31.8572 160.966 29.6906 159.305 28.556C158.06 27.7307 156.088 27.0086 154.22 26.9054V24.9454L170.826 23.8105L171.552 24.5327V31.5478H171.76C175.704 27.7306 179.648 23.0882 188.573 23.0882C198.225 23.0882 202.688 29.5876 202.688 39.3881V63.2186C202.688 65.4879 203.519 67.0357 205.387 67.861C206.84 68.4797 208.085 68.8924 209.953 68.9957L209.953 71.0589Z" fill="black"/>
<path d="M269.837 70.1303L252.4 71.265L251.674 70.543V66.1071L251.259 66.0038C248.976 68.3769 243.994 72.4001 237.455 72.4001C225.312 72.4001 215.349 62.5998 215.349 47.1252C215.349 32.9918 226.765 23.0882 239.012 23.0882C245.551 23.0882 250.325 25.358 251.57 25.8737V11.3479C251.363 9.18135 250.533 6.49935 248.872 5.36445C247.107 4.1265 242.541 3.19815 239.739 2.9916V1.1349L260.288 0L261.015 0.722249V61.7745C261.222 63.9406 262.053 65.6945 263.713 66.8291C264.959 67.6544 267.969 68.0671 269.837 68.1704V70.1303ZM251.57 63.1153V33.9204C250.429 30.4129 247.004 25.358 239.842 25.358C231.955 25.358 225.935 34.1267 225.935 48.2599C225.935 58.5761 230.502 68.3769 240.984 68.3769C245.966 68.3769 248.872 66.0038 251.57 63.1153Z" fill="black"/>
<path d="M335.116 52.3864C335.116 65.5912 321.105 71.0589 311.245 71.0589H275.127V68.7891C276.995 68.6863 281.458 67.9638 282.807 67.4483C285.298 66.5198 286.025 64.7659 286.025 62.4965V9.78038C286.025 7.51081 285.298 5.65388 282.807 4.62226C280.628 3.69368 277.41 2.97166 275.542 2.86838V0.599028H311.037C318.718 0.599028 331.379 3.69368 331.379 14.7322C331.379 26.3894 323.284 29.8972 313.424 32.6825V33.611C320.793 34.4363 335.116 38.7689 335.116 52.3864ZM318.925 16.6924C318.925 6.47919 311.971 3.38431 305.537 3.38431C303.772 3.38431 299.517 3.48758 297.026 3.59063V32.3731H303.461C314.877 32.3731 318.925 25.358 318.925 16.6924ZM322.35 50.3231C322.35 41.9671 316.538 35.1584 305.848 35.1584C303.98 35.1584 298.894 35.2616 297.026 35.3647V61.8773C297.752 66.5198 300.658 68.1704 306.782 68.1704C319.133 68.1704 322.35 58.6794 322.35 50.3231Z" fill="black"/>
<path d="M380.468 29.5876C380.468 33.1984 378.496 36.0869 374.967 36.0869C371.646 36.0869 369.363 34.6424 369.363 31.1351C369.363 30.1033 370.089 29.278 370.089 27.937C364.796 27.937 360.956 32.3731 359.711 34.6424V63.1153C359.711 65.3851 360.645 67.0357 362.513 67.7577C364.277 68.4797 367.287 68.8924 369.259 68.9957V71.0589H342.897V68.9957C344.765 68.8924 346.011 68.6863 347.464 68.2736C349.436 67.6544 350.266 65.901 350.266 63.6312V34.0237C350.059 31.8572 349.125 29.6906 347.464 28.556C346.219 27.7307 344.246 27.0086 342.378 26.9054V24.9454L358.984 23.8105L359.711 24.5327V31.5478H359.918C364.381 25.8737 369.57 23.2948 373.93 23.2948C377.147 23.2948 380.468 26.1833 380.468 29.5876Z" fill="black"/>
<path d="M408.488 71.0589H384.306V68.9957C386.174 68.8924 387.419 68.6863 388.873 68.2736C390.844 67.6544 391.675 65.6945 391.675 63.6312V34.0237C391.467 31.8572 390.533 30.0002 388.873 28.8653C387.627 28.04 384.617 27.0086 382.749 26.9054V24.9454L400.393 23.8105L401.119 24.5327V63.012C401.119 65.1785 402.053 66.9324 403.922 67.7577C405.582 68.4797 407.139 68.8924 408.488 68.9957V71.0589ZM402.053 9.0783C402.053 12.6891 399.251 15.7838 395.515 15.7838C392.09 15.7838 389.184 12.8952 389.184 9.49095C389.184 5.98342 392.09 2.9916 395.515 2.9916C399.355 2.9916 402.053 5.7771 402.053 9.0783Z" fill="black"/>
<path d="M437.236 71.0589H413.054V68.9957C414.922 68.8924 416.168 68.6863 417.62 68.2736C419.592 67.6544 420.423 65.901 420.423 63.6312V11.0385C420.423 8.66565 419.281 6.2928 417.62 5.15813C416.375 4.33283 412.223 3.19815 410.356 3.09488V1.1349L429.141 0L429.867 0.722249V63.012C429.867 65.2818 430.801 66.9324 432.67 67.7577C434.226 68.4797 435.368 68.8924 437.236 68.9957V71.0589Z" fill="black"/>
<path d="M466.191 71.0589H442.008V68.9957C443.877 68.8924 445.122 68.6863 446.575 68.2736C448.547 67.6544 449.377 65.901 449.377 63.6312V11.0385C449.377 8.66565 448.236 6.2928 446.575 5.15813C445.33 4.33283 441.178 3.19815 439.31 3.09488V1.1349L458.095 0L458.822 0.722249V63.012C458.822 65.2818 459.756 66.9324 461.624 67.7577C463.181 68.4797 464.323 68.8924 466.191 68.9957V71.0589Z" fill="black"/>
<path d="M496.08 71.0589H471.898V68.9957C473.766 68.8924 475.011 68.6863 476.464 68.2736C478.436 67.6544 479.267 65.6945 479.267 63.6312V34.0237C479.059 31.8572 478.125 30.0002 476.464 28.8653C475.219 28.04 472.209 27.0086 470.341 26.9054V24.9454L487.985 23.8105L488.711 24.5327V63.012C488.711 65.1785 489.645 66.9324 491.513 67.7577C493.174 68.4797 494.731 68.8924 496.08 68.9957V71.0589ZM489.645 9.0783C489.645 12.6891 486.843 15.7838 483.107 15.7838C479.682 15.7838 476.776 12.8952 476.776 9.49095C476.776 5.98342 479.682 2.9916 483.107 2.9916C486.947 2.9916 489.645 5.7771 489.645 9.0783Z" fill="black"/>
<path d="M549.841 58.7827C549.218 68.3769 545.274 72.0903 538.839 72.0903C533.961 72.0903 531.366 69.9242 529.706 65.1785H529.395C525.658 69.5116 520.261 72.2969 514.034 72.2969C506.873 72.2969 501.995 67.9638 501.995 61.3614C501.995 52.9023 506.977 50.0138 512.166 48.0538C518.082 45.784 525.243 44.0303 529.602 41.5544V35.7773C529.602 33.9204 529.291 25.358 520.676 25.358C516.732 25.358 515.28 27.7307 514.345 28.8653C514.345 30.4129 515.28 32.6825 515.28 34.952C515.28 37.1183 512.996 39.3881 509.26 39.3881C505.835 39.3881 504.589 36.7057 504.589 34.0237C504.589 27.8339 513.411 23.0882 521.299 23.0882C531.574 23.0882 539.15 24.6358 539.15 38.3563C539.15 47.4346 538.631 58.0602 538.631 61.4647C538.631 63.012 540.085 66.7263 543.51 66.7263C546.934 66.7263 547.246 62.7026 547.557 58.7827L549.841 58.7827ZM529.706 44.546C519.327 47.7442 512.062 50.6325 512.062 59.8141C512.062 65.4879 514.657 68.0671 519.12 68.0671C524.516 68.0671 526.8 65.6945 529.291 62.5998L529.706 44.546Z" fill="black"/>
<path d="M607.544 71.0589H583.05V68.9957C584.918 68.8924 586.475 68.6863 587.928 68.2736C589.9 67.6544 590.73 65.901 590.73 63.6312V38.7689C590.73 31.6508 586.579 27.7307 582.116 27.7307C574.539 27.7307 570.284 32.5792 569.143 34.952V63.1153C569.143 65.3851 570.076 66.9324 571.945 67.7577C573.501 68.4797 575.058 68.8924 576.823 68.9957V71.0589H552.329V68.9957C554.197 68.8924 555.442 68.6863 556.896 68.2736C558.867 67.6544 559.698 65.901 559.698 63.6312V34.0237C559.49 31.8572 558.556 29.6906 556.896 28.556C555.65 27.7307 553.678 27.0086 551.81 26.9054V24.9454L568.416 23.8105L569.143 24.5327V31.5478H569.35C573.294 27.7306 577.238 23.0882 586.163 23.0882C595.816 23.0882 600.278 29.5876 600.278 39.3881V63.2186C600.278 65.4879 601.109 67.0357 602.977 67.861C604.43 68.4797 605.676 68.8924 607.544 68.9957V71.0589Z" fill="black"/>
<path d="M654.661 60.0206C650.821 66.8291 643.66 72.2969 635.461 72.2969C620.411 72.2969 612.939 61.7745 612.939 47.5379C612.939 34.849 621.761 23.0882 635.979 23.0882C646.67 23.0882 652.067 28.7623 652.067 35.0551C652.067 38.4596 650.302 40.8322 646.67 40.8322C644.594 40.8322 640.858 39.6975 640.858 35.6743C640.858 31.3412 642.207 31.2382 642.207 29.278C641.688 26.2864 639.612 25.5641 635.979 25.5641C629.856 25.5641 623.421 31.0319 623.421 46.6093C623.421 58.6794 628.818 67.7577 637.952 67.7577C645.32 67.7577 649.264 64.5598 652.689 58.5761L654.661 60.0206Z" fill="black"/>
<path d="M700.326 59.8141C696.693 67.1385 689.74 72.2969 681.022 72.2969C665.35 72.2969 658.085 60.9492 658.085 47.3315C658.085 34.952 666.076 23.0882 679.88 23.0882C694.099 23.0882 699.288 32.3731 699.288 42.8954V43.824H668.359V44.9587C668.359 58.2668 672.719 67.7577 683.824 67.7577C691.919 67.7577 694.514 64.8692 698.458 58.5761L700.326 59.8141ZM689.221 41.3481C689.221 33.9204 687.664 25.4611 679.776 25.4611C673.237 25.4611 668.671 31.8572 668.359 41.5544L689.221 41.3481Z" fill="black"/>
<path d="M713.965 27.5995H713.624C713.578 27.0441 712.77 25.5628 712.289 25.5012C712.025 25.4702 711.777 25.4547 711.482 25.4547H711.078V31.4263C711.078 31.6422 711.187 31.8275 711.435 31.9201C711.559 31.9662 712.398 32.1204 712.63 32.136V32.46H708.036V32.136C708.284 32.1204 709.091 32.0278 709.231 31.9817C709.495 31.8891 709.588 31.6883 709.588 31.4724V25.4547H709.2C708.936 25.4547 708.641 25.4702 708.377 25.5012C707.896 25.5628 707.135 26.9825 707.027 27.5995H706.701V25.0996H713.965V27.5995Z" fill="black"/>
<path d="M725.5 25.4241C725.252 25.4391 724.615 25.5318 724.413 25.5934C724.165 25.6705 724.103 25.8713 724.103 26.0872V31.4569C724.103 31.6732 724.211 31.843 724.413 31.9352C724.553 31.9972 725.205 32.1204 725.453 32.136V32.46H721.138V32.136C721.386 32.1204 722.1 32.0433 722.271 31.9662C722.519 31.858 722.628 31.6883 722.628 31.4569V26.2879H722.566L719.834 32.3212H719.508C719.368 31.8891 719.182 31.5035 718.902 30.8399L716.853 25.9484H716.776V30.3152C716.776 31.1019 716.915 31.5806 717.164 31.7654C717.366 31.9046 718.235 32.1204 718.468 32.136V32.46H714.68V32.1515C714.913 32.1049 715.611 31.9972 715.875 31.8275C716.155 31.6422 716.263 31.1639 716.263 30.3617V26.5809C716.263 26.1643 716.139 25.8713 715.922 25.7326C715.658 25.5628 714.928 25.4391 714.587 25.4241V25.0996H717.956L720.237 30.3923L722.162 26.0255C722.317 25.686 722.411 25.2694 722.426 25.0996H725.5V25.4241Z" fill="black"/>
<path d="M334.968 86.0823H215.334V91.5288H334.968V86.0823Z" fill="black"/>
</svg>
