<svg width="27" height="27" viewBox="0 0 27 27" fill="none" xmlns="http://www.w3.org/2000/svg">
<path fill-rule="evenodd" clip-rule="evenodd" d="M13.2857 0.425781C9.67731 0.425781 9.2256 0.440838 7.80846 0.505496C6.39397 0.570153 5.42766 0.795124 4.58269 1.12372C3.69697 1.45675 2.89363 1.97932 2.22934 2.65601C1.55374 3.31953 1.03085 4.12231 0.697057 5.00847C0.370229 5.85344 0.144371 6.82064 0.0797143 8.23512C0.0159429 9.65138 0 10.1022 0 13.7115C0 17.3208 0.0150571 17.7716 0.0797143 19.1888C0.144371 20.6032 0.369343 21.5696 0.697943 22.4145C1.03097 23.3002 1.55354 24.1036 2.23023 24.7679C2.89376 25.4434 3.69654 25.9663 4.58269 26.3002C5.42766 26.6279 6.39397 26.8528 7.80846 26.9175C9.2256 26.9822 9.67731 26.9972 13.2857 26.9972C16.8941 26.9972 17.3458 26.9822 18.763 26.9175C20.1775 26.8528 21.1438 26.6279 21.9887 26.2993C22.8745 25.9662 23.6778 25.4437 24.3421 24.767C25.0177 24.1035 25.5406 23.3007 25.8744 22.4145C26.2021 21.5696 26.4271 20.6032 26.4917 19.1888C26.5564 17.7716 26.5714 17.3199 26.5714 13.7115C26.5714 10.1031 26.5564 9.65138 26.4917 8.23424C26.4271 6.81975 26.2021 5.85344 25.8735 5.00847C25.5399 4.12192 25.017 3.31881 24.3412 2.65512C23.6777 1.97952 22.8749 1.45663 21.9887 1.12284C21.1438 0.79601 20.1766 0.570153 18.7621 0.505496C17.3458 0.441724 16.895 0.425781 13.2857 0.425781ZM13.2857 2.81987C16.833 2.81987 17.2537 2.83315 18.6549 2.89692C19.9498 2.95627 20.6531 3.1715 21.1216 3.35484C21.7416 3.59487 22.1845 3.88361 22.6495 4.34772C23.1145 4.81272 23.4023 5.25558 23.6424 5.87558C23.8248 6.34412 24.0409 7.04738 24.1003 8.3423C24.1641 9.74349 24.1773 10.1642 24.1773 13.7115C24.1773 17.2588 24.1641 17.6795 24.1003 19.0807C24.0409 20.3756 23.8257 21.0789 23.6424 21.5474C23.4297 22.1245 23.0905 22.6466 22.6495 23.0753C22.2209 23.5163 21.6988 23.8556 21.1216 24.0682C20.6531 24.2506 19.9498 24.4667 18.6549 24.5261C17.2537 24.5898 16.8339 24.6031 13.2857 24.6031C9.73754 24.6031 9.31771 24.5898 7.91651 24.5261C6.6216 24.4667 5.91834 24.2515 5.4498 24.0682C4.87272 23.8555 4.35063 23.5162 3.92194 23.0753C3.48101 22.6465 3.14174 22.1245 2.92906 21.5474C2.7466 21.0789 2.53049 20.3756 2.47114 19.0807C2.40737 17.6795 2.39409 17.2588 2.39409 13.7115C2.39409 10.1642 2.40737 9.74349 2.47114 8.3423C2.53049 7.04738 2.74571 6.34412 2.92906 5.87558C3.16909 5.25558 3.45783 4.81272 3.92194 4.34772C4.35058 3.90668 4.87268 3.56739 5.4498 3.35484C5.91834 3.17238 6.6216 2.95627 7.91651 2.89692C9.31771 2.83315 9.73843 2.81987 13.2857 2.81987Z" fill="white"/>
<path fill-rule="evenodd" clip-rule="evenodd" d="M13.2859 18.1446C12.7037 18.1446 12.1273 18.0299 11.5895 17.8072C11.0516 17.5844 10.5629 17.2579 10.1513 16.8462C9.73964 16.4346 9.41311 15.9459 9.19033 15.408C8.96755 14.8702 8.85289 14.2938 8.85289 13.7116C8.85289 13.1295 8.96755 12.553 9.19033 12.0152C9.41311 11.4773 9.73964 10.9886 10.1513 10.577C10.5629 10.1654 11.0516 9.83882 11.5895 9.61604C12.1273 9.39327 12.7037 9.2786 13.2859 9.2786C14.4616 9.2786 15.5891 9.74565 16.4205 10.577C17.2518 11.4083 17.7189 12.5359 17.7189 13.7116C17.7189 14.8873 17.2518 16.0149 16.4205 16.8462C15.5891 17.6776 14.4616 18.1446 13.2859 18.1446ZM13.2859 6.88275C11.4748 6.88275 9.73781 7.60221 8.45716 8.88287C7.1765 10.1635 6.45703 11.9005 6.45703 13.7116C6.45703 15.5227 7.1765 17.2597 8.45716 18.5403C9.73781 19.821 11.4748 20.5405 13.2859 20.5405C15.097 20.5405 16.834 19.821 18.1146 18.5403C19.3953 17.2597 20.1147 15.5227 20.1147 13.7116C20.1147 11.9005 19.3953 10.1635 18.1146 8.88287C16.834 7.60221 15.097 6.88275 13.2859 6.88275ZM22.1014 6.75875C22.1014 7.18686 21.9313 7.59744 21.6286 7.90017C21.3259 8.20289 20.9153 8.37296 20.4872 8.37296C20.0591 8.37296 19.6485 8.20289 19.3458 7.90017C19.043 7.59744 18.873 7.18686 18.873 6.75875C18.873 6.33063 19.043 5.92005 19.3458 5.61732C19.6485 5.3146 20.0591 5.14453 20.4872 5.14453C20.9153 5.14453 21.3259 5.3146 21.6286 5.61732C21.9313 5.92005 22.1014 6.33063 22.1014 6.75875Z" fill="white"/>
</svg>
