<svg width="28" height="28" viewBox="0 0 28 28" fill="none" xmlns="http://www.w3.org/2000/svg">
<path d="M27.1906 2.90691V25.5708C27.1906 26.0889 26.9847 26.5859 26.6183 26.9523C26.2519 27.3187 25.755 27.5246 25.2368 27.5246H2.57292C2.05475 27.5246 1.5578 27.3187 1.19139 26.9523C0.824985 26.5859 0.619141 26.0889 0.619141 25.5708L0.619141 2.90691C0.619141 2.38873 0.824985 1.89178 1.19139 1.52537C1.5578 1.15897 2.05475 0.953125 2.57292 0.953125L25.2368 0.953125C25.755 0.953125 26.2519 1.15897 26.6183 1.52537C26.9847 1.89178 27.1906 2.38873 27.1906 2.90691ZM8.43427 11.1128H4.5267V23.617H8.43427V11.1128ZM8.78595 6.81447C8.78801 6.51889 8.73183 6.22581 8.62062 5.95194C8.5094 5.67808 8.34534 5.42881 8.13778 5.21835C7.93023 5.0079 7.68326 4.84038 7.41097 4.72538C7.13868 4.61037 6.8464 4.55013 6.55082 4.54808H6.48049C5.8794 4.54808 5.30294 4.78686 4.87791 5.21189C4.45288 5.63692 4.2141 6.21339 4.2141 6.81447C4.2141 7.41555 4.45288 7.99202 4.87791 8.41705C5.30294 8.84208 5.8794 9.08086 6.48049 9.08086C6.77608 9.08813 7.07021 9.03708 7.34608 8.93064C7.62194 8.8242 7.87412 8.66445 8.08822 8.46051C8.30232 8.25657 8.47414 8.01244 8.59386 7.74208C8.71358 7.47171 8.77885 7.18041 8.78595 6.88481V6.81447ZM23.283 16.0207C23.283 12.2616 20.8916 10.8002 18.5158 10.8002C17.7379 10.7612 16.9634 10.9269 16.2695 11.2807C15.5757 11.6345 14.9867 12.164 14.5613 12.8165H14.4519V11.1128H10.7788V23.617H14.6864V16.9663C14.6299 16.2852 14.8444 15.6093 15.2834 15.0854C15.7224 14.5615 16.3504 14.232 17.0309 14.1685H17.1794C18.422 14.1685 19.3442 14.95 19.3442 16.9194V23.617H23.2517L23.283 16.0207Z" fill="white"/>
</svg>
